<?xml version="1.0" encoding="utf-8" standalone="no"?>
<!DOCTYPE svg PUBLIC "-//W3C//DTD SVG 1.1//EN"
  "http://www.w3.org/Graphics/SVG/1.1/DTD/svg11.dtd">
<svg xmlns:xlink="http://www.w3.org/1999/xlink" width="323.997965pt" height="208.323602pt" viewBox="0 0 323.997965 208.323602" xmlns="http://www.w3.org/2000/svg" version="1.1">
 <metadata>
  <rdf:RDF xmlns:dc="http://purl.org/dc/elements/1.1/" xmlns:cc="http://creativecommons.org/ns#" xmlns:rdf="http://www.w3.org/1999/02/22-rdf-syntax-ns#">
   <cc:Work>
    <dc:type rdf:resource="http://purl.org/dc/dcmitype/StillImage"/>
    <dc:date>2025-11-24T05:03:34.559364</dc:date>
    <dc:format>image/svg+xml</dc:format>
    <dc:creator>
     <cc:Agent>
      <dc:title>Matplotlib v3.10.6, https://matplotlib.org/</dc:title>
     </cc:Agent>
    </dc:creator>
   </cc:Work>
  </rdf:RDF>
 </metadata>
 <defs>
  <style type="text/css">*{stroke-linejoin: round; stroke-linecap: butt}</style>
 </defs>
 <g id="figure_1">
  <g id="patch_1">
   <path d="M 0 208.323602 
L 323.997965 208.323602 
L 323.997965 0 
L 0 0 
L 0 208.323602 
z
" style="fill: none"/>
  </g>
  <g id="axes_1">
   <g id="patch_2">
    <path d="M 50.421875 170.767352 
L 316.797965 170.767352 
L 316.797965 7.2 
L 50.421875 7.2 
L 50.421875 170.767352 
z
" style="fill: none"/>
   </g>
   <g id="matplotlib.axis_1">
    <g id="xtick_1">
     <g id="text_1">
      <!-- 50 -->
      <g style="fill: #262626" transform="translate(79.182593 185.365789) scale(0.1 -0.1)">
       <defs>
        <path id="DejaVuSans-35" d="M 691 4666 
L 3169 4666 
L 3169 4134 
L 1269 4134 
L 1269 2991 
Q 1406 3038 1543 3061 
Q 1681 3084 1819 3084 
Q 2600 3084 3056 2656 
Q 3513 2228 3513 1497 
Q 3513 744 3044 326 
Q 2575 -91 1722 -91 
Q 1428 -91 1123 -41 
Q 819 9 494 109 
L 494 744 
Q 775 591 1075 516 
Q 1375 441 1709 441 
Q 2250 441 2565 725 
Q 2881 1009 2881 1497 
Q 2881 1984 2565 2268 
Q 2250 2553 1709 2553 
Q 1456 2553 1204 2497 
Q 953 2441 691 2322 
L 691 4666 
z
" transform="scale(0.015625)"/>
        <path id="DejaVuSans-30" d="M 2034 4250 
Q 1547 4250 1301 3770 
Q 1056 3291 1056 2328 
Q 1056 1369 1301 889 
Q 1547 409 2034 409 
Q 2525 409 2770 889 
Q 3016 1369 3016 2328 
Q 3016 3291 2770 3770 
Q 2525 4250 2034 4250 
z
M 2034 4750 
Q 2819 4750 3233 4129 
Q 3647 3509 3647 2328 
Q 3647 1150 3233 529 
Q 2819 -91 2034 -91 
Q 1250 -91 836 529 
Q 422 1150 422 2328 
Q 422 3509 836 4129 
Q 1250 4750 2034 4750 
z
" transform="scale(0.015625)"/>
       </defs>
       <use xlink:href="#DejaVuSans-35"/>
       <use xlink:href="#DejaVuSans-30" transform="translate(63.623047 0)"/>
      </g>
     </g>
    </g>
    <g id="xtick_2">
     <g id="text_2">
      <!-- 100 -->
      <g style="fill: #262626" transform="translate(126.034418 185.365789) scale(0.1 -0.1)">
       <defs>
        <path id="DejaVuSans-31" d="M 794 531 
L 1825 531 
L 1825 4091 
L 703 3866 
L 703 4441 
L 1819 4666 
L 2450 4666 
L 2450 531 
L 3481 531 
L 3481 0 
L 794 0 
L 794 531 
z
" transform="scale(0.015625)"/>
       </defs>
       <use xlink:href="#DejaVuSans-31"/>
       <use xlink:href="#DejaVuSans-30" transform="translate(63.623047 0)"/>
       <use xlink:href="#DejaVuSans-30" transform="translate(127.246094 0)"/>
      </g>
     </g>
    </g>
    <g id="xtick_3">
     <g id="text_3">
      <!-- 150 -->
      <g style="fill: #262626" transform="translate(176.067493 185.365789) scale(0.1 -0.1)">
       <use xlink:href="#DejaVuSans-31"/>
       <use xlink:href="#DejaVuSans-35" transform="translate(63.623047 0)"/>
       <use xlink:href="#DejaVuSans-30" transform="translate(127.246094 0)"/>
      </g>
     </g>
    </g>
    <g id="xtick_4">
     <g id="text_4">
      <!-- 200 -->
      <g style="fill: #262626" transform="translate(226.100568 185.365789) scale(0.1 -0.1)">
       <defs>
        <path id="DejaVuSans-32" d="M 1228 531 
L 3431 531 
L 3431 0 
L 469 0 
L 469 531 
Q 828 903 1448 1529 
Q 2069 2156 2228 2338 
Q 2531 2678 2651 2914 
Q 2772 3150 2772 3378 
Q 2772 3750 2511 3984 
Q 2250 4219 1831 4219 
Q 1534 4219 1204 4116 
Q 875 4013 500 3803 
L 500 4441 
Q 881 4594 1212 4672 
Q 1544 4750 1819 4750 
Q 2544 4750 2975 4387 
Q 3406 4025 3406 3419 
Q 3406 3131 3298 2873 
Q 3191 2616 2906 2266 
Q 2828 2175 2409 1742 
Q 1991 1309 1228 531 
z
" transform="scale(0.015625)"/>
       </defs>
       <use xlink:href="#DejaVuSans-32"/>
       <use xlink:href="#DejaVuSans-30" transform="translate(63.623047 0)"/>
       <use xlink:href="#DejaVuSans-30" transform="translate(127.246094 0)"/>
      </g>
     </g>
    </g>
    <g id="xtick_5">
     <g id="text_5">
      <!-- 250 -->
      <g style="fill: #262626" transform="translate(276.133642 185.365789) scale(0.1 -0.1)">
       <use xlink:href="#DejaVuSans-32"/>
       <use xlink:href="#DejaVuSans-35" transform="translate(63.623047 0)"/>
       <use xlink:href="#DejaVuSans-30" transform="translate(127.246094 0)"/>
      </g>
     </g>
    </g>
    <g id="text_6">
     <!-- draw -->
     <g style="fill: #262626" transform="translate(171.227107 199.043914) scale(0.1 -0.1)">
      <defs>
       <path id="DejaVuSans-64" d="M 2906 2969 
L 2906 4863 
L 3481 4863 
L 3481 0 
L 2906 0 
L 2906 525 
Q 2725 213 2448 61 
Q 2172 -91 1784 -91 
Q 1150 -91 751 415 
Q 353 922 353 1747 
Q 353 2572 751 3078 
Q 1150 3584 1784 3584 
Q 2172 3584 2448 3432 
Q 2725 3281 2906 2969 
z
M 947 1747 
Q 947 1113 1208 752 
Q 1469 391 1925 391 
Q 2381 391 2643 752 
Q 2906 1113 2906 1747 
Q 2906 2381 2643 2742 
Q 2381 3103 1925 3103 
Q 1469 3103 1208 2742 
Q 947 2381 947 1747 
z
" transform="scale(0.015625)"/>
       <path id="DejaVuSans-72" d="M 2631 2963 
Q 2534 3019 2420 3045 
Q 2306 3072 2169 3072 
Q 1681 3072 1420 2755 
Q 1159 2438 1159 1844 
L 1159 0 
L 581 0 
L 581 3500 
L 1159 3500 
L 1159 2956 
Q 1341 3275 1631 3429 
Q 1922 3584 2338 3584 
Q 2397 3584 2469 3576 
Q 2541 3569 2628 3553 
L 2631 2963 
z
" transform="scale(0.015625)"/>
       <path id="DejaVuSans-61" d="M 2194 1759 
Q 1497 1759 1228 1600 
Q 959 1441 959 1056 
Q 959 750 1161 570 
Q 1363 391 1709 391 
Q 2188 391 2477 730 
Q 2766 1069 2766 1631 
L 2766 1759 
L 2194 1759 
z
M 3341 1997 
L 3341 0 
L 2766 0 
L 2766 531 
Q 2569 213 2275 61 
Q 1981 -91 1556 -91 
Q 1019 -91 701 211 
Q 384 513 384 1019 
Q 384 1609 779 1909 
Q 1175 2209 1959 2209 
L 2766 2209 
L 2766 2266 
Q 2766 2663 2505 2880 
Q 2244 3097 1772 3097 
Q 1472 3097 1187 3025 
Q 903 2953 641 2809 
L 641 3341 
Q 956 3463 1253 3523 
Q 1550 3584 1831 3584 
Q 2591 3584 2966 3190 
Q 3341 2797 3341 1997 
z
" transform="scale(0.015625)"/>
       <path id="DejaVuSans-77" d="M 269 3500 
L 844 3500 
L 1563 769 
L 2278 3500 
L 2956 3500 
L 3675 769 
L 4391 3500 
L 4966 3500 
L 4050 0 
L 3372 0 
L 2619 2869 
L 1863 0 
L 1184 0 
L 269 3500 
z
" transform="scale(0.015625)"/>
      </defs>
      <use xlink:href="#DejaVuSans-64"/>
      <use xlink:href="#DejaVuSans-72" transform="translate(63.476562 0)"/>
      <use xlink:href="#DejaVuSans-61" transform="translate(104.589844 0)"/>
      <use xlink:href="#DejaVuSans-77" transform="translate(165.869141 0)"/>
     </g>
    </g>
   </g>
   <g id="matplotlib.axis_2">
    <g id="ytick_1">
     <g id="text_7">
      <!-- 0.05 -->
      <g style="fill: #262626" transform="translate(21.15625 166.58982) scale(0.1 -0.1)">
       <defs>
        <path id="DejaVuSans-2e" d="M 684 794 
L 1344 794 
L 1344 0 
L 684 0 
L 684 794 
z
" transform="scale(0.015625)"/>
       </defs>
       <use xlink:href="#DejaVuSans-30"/>
       <use xlink:href="#DejaVuSans-2e" transform="translate(63.623047 0)"/>
       <use xlink:href="#DejaVuSans-30" transform="translate(95.410156 0)"/>
       <use xlink:href="#DejaVuSans-35" transform="translate(159.033203 0)"/>
      </g>
     </g>
    </g>
    <g id="ytick_2">
     <g id="text_8">
      <!-- 0.10 -->
      <g style="fill: #262626" transform="translate(21.15625 130.923171) scale(0.1 -0.1)">
       <use xlink:href="#DejaVuSans-30"/>
       <use xlink:href="#DejaVuSans-2e" transform="translate(63.623047 0)"/>
       <use xlink:href="#DejaVuSans-31" transform="translate(95.410156 0)"/>
       <use xlink:href="#DejaVuSans-30" transform="translate(159.033203 0)"/>
      </g>
     </g>
    </g>
    <g id="ytick_3">
     <g id="text_9">
      <!-- 0.15 -->
      <g style="fill: #262626" transform="translate(21.15625 95.256521) scale(0.1 -0.1)">
       <use xlink:href="#DejaVuSans-30"/>
       <use xlink:href="#DejaVuSans-2e" transform="translate(63.623047 0)"/>
       <use xlink:href="#DejaVuSans-31" transform="translate(95.410156 0)"/>
       <use xlink:href="#DejaVuSans-35" transform="translate(159.033203 0)"/>
      </g>
     </g>
    </g>
    <g id="ytick_4">
     <g id="text_10">
      <!-- 0.20 -->
      <g style="fill: #262626" transform="translate(21.15625 59.589872) scale(0.1 -0.1)">
       <use xlink:href="#DejaVuSans-30"/>
       <use xlink:href="#DejaVuSans-2e" transform="translate(63.623047 0)"/>
       <use xlink:href="#DejaVuSans-32" transform="translate(95.410156 0)"/>
       <use xlink:href="#DejaVuSans-30" transform="translate(159.033203 0)"/>
      </g>
     </g>
    </g>
    <g id="ytick_5">
     <g id="text_11">
      <!-- 0.25 -->
      <g style="fill: #262626" transform="translate(21.15625 23.923223) scale(0.1 -0.1)">
       <use xlink:href="#DejaVuSans-30"/>
       <use xlink:href="#DejaVuSans-2e" transform="translate(63.623047 0)"/>
       <use xlink:href="#DejaVuSans-32" transform="translate(95.410156 0)"/>
       <use xlink:href="#DejaVuSans-35" transform="translate(159.033203 0)"/>
      </g>
     </g>
    </g>
    <g id="text_12">
     <!-- train_dtf -->
     <g style="fill: #262626" transform="translate(14.798437 110.015707) rotate(-90) scale(0.1 -0.1)">
      <defs>
       <path id="DejaVuSans-74" d="M 1172 4494 
L 1172 3500 
L 2356 3500 
L 2356 3053 
L 1172 3053 
L 1172 1153 
Q 1172 725 1289 603 
Q 1406 481 1766 481 
L 2356 481 
L 2356 0 
L 1766 0 
Q 1100 0 847 248 
Q 594 497 594 1153 
L 594 3053 
L 172 3053 
L 172 3500 
L 594 3500 
L 594 4494 
L 1172 4494 
z
" transform="scale(0.015625)"/>
       <path id="DejaVuSans-69" d="M 603 3500 
L 1178 3500 
L 1178 0 
L 603 0 
L 603 3500 
z
M 603 4863 
L 1178 4863 
L 1178 4134 
L 603 4134 
L 603 4863 
z
" transform="scale(0.015625)"/>
       <path id="DejaVuSans-6e" d="M 3513 2113 
L 3513 0 
L 2938 0 
L 2938 2094 
Q 2938 2591 2744 2837 
Q 2550 3084 2163 3084 
Q 1697 3084 1428 2787 
Q 1159 2491 1159 1978 
L 1159 0 
L 581 0 
L 581 3500 
L 1159 3500 
L 1159 2956 
Q 1366 3272 1645 3428 
Q 1925 3584 2291 3584 
Q 2894 3584 3203 3211 
Q 3513 2838 3513 2113 
z
" transform="scale(0.015625)"/>
       <path id="DejaVuSans-5f" d="M 3263 -1063 
L 3263 -1509 
L -63 -1509 
L -63 -1063 
L 3263 -1063 
z
" transform="scale(0.015625)"/>
       <path id="DejaVuSans-66" d="M 2375 4863 
L 2375 4384 
L 1825 4384 
Q 1516 4384 1395 4259 
Q 1275 4134 1275 3809 
L 1275 3500 
L 2222 3500 
L 2222 3053 
L 1275 3053 
L 1275 0 
L 697 0 
L 697 3053 
L 147 3053 
L 147 3500 
L 697 3500 
L 697 3744 
Q 697 4328 969 4595 
Q 1241 4863 1831 4863 
L 2375 4863 
z
" transform="scale(0.015625)"/>
      </defs>
      <use xlink:href="#DejaVuSans-74"/>
      <use xlink:href="#DejaVuSans-72" transform="translate(39.208984 0)"/>
      <use xlink:href="#DejaVuSans-61" transform="translate(80.322266 0)"/>
      <use xlink:href="#DejaVuSans-69" transform="translate(141.601562 0)"/>
      <use xlink:href="#DejaVuSans-6e" transform="translate(169.384766 0)"/>
      <use xlink:href="#DejaVuSans-5f" transform="translate(232.763672 0)"/>
      <use xlink:href="#DejaVuSans-64" transform="translate(282.763672 0)"/>
      <use xlink:href="#DejaVuSans-74" transform="translate(346.240234 0)"/>
      <use xlink:href="#DejaVuSans-66" transform="translate(385.449219 0)"/>
     </g>
    </g>
   </g>
   <g id="line2d_1">
    <path d="M 62.529879 121.433019 
L 63.530541 157.865462 
L 64.531202 162.423016 
L 65.531864 148.719764 
L 66.532525 49.103108 
L 67.533187 69.867409 
L 68.533848 51.803945 
L 69.53451 70.209372 
L 70.535171 162.791394 
L 71.535833 78.428011 
L 72.536494 103.736124 
L 73.537156 34.370764 
L 74.537817 27.617603 
L 75.538478 110.666281 
L 76.53914 162.322369 
L 77.539801 64.58337 
L 78.540463 39.757145 
L 79.541124 85.487118 
L 80.541786 110.533788 
L 81.542447 116.406996 
L 82.543109 162.960449 
L 83.54377 73.732382 
L 84.544432 37.767999 
L 85.545093 40.214363 
L 86.545755 73.465788 
L 87.546416 57.683035 
L 88.547078 60.232634 
L 89.547739 157.025629 
L 90.548401 162.228918 
L 91.549062 161.061188 
L 92.549724 158.917966 
L 93.550385 160.961869 
L 94.551047 160.930238 
L 95.551708 161.569255 
L 96.55237 46.708321 
L 97.553031 70.288937 
L 98.553693 82.654901 
L 99.554354 46.49304 
L 100.555016 162.789629 
L 101.555677 161.188435 
L 102.556339 143.496307 
L 103.557 78.673666 
L 104.557662 80.095612 
L 105.558323 52.496255 
L 106.558985 162.939059 
L 107.559646 23.841013 
L 108.560308 150.624972 
L 109.560969 161.667279 
L 110.561631 161.941906 
L 111.562292 161.108705 
L 112.562954 162.476823 
L 113.563615 161.753126 
L 114.564277 162.018233 
L 115.564938 161.713382 
L 116.5656 127.206881 
L 117.566261 36.552929 
L 118.566923 162.902261 
L 119.567584 28.083055 
L 120.568246 68.83791 
L 121.568907 116.233882 
L 122.569569 85.622169 
L 123.57023 119.351101 
L 124.570892 162.417906 
L 125.571553 118.352218 
L 126.572215 54.475131 
L 127.572876 53.098794 
L 128.573538 93.549 
L 129.574199 42.092864 
L 130.574861 163.142483 
L 131.575522 30.200691 
L 132.576184 67.291782 
L 133.576845 47.57649 
L 134.577507 99.182679 
L 135.578168 42.881575 
L 136.57883 162.825597 
L 137.579491 46.320762 
L 138.580153 39.080587 
L 139.580814 101.032199 
L 140.581476 69.939083 
L 141.582137 64.391144 
L 142.582799 162.620751 
L 143.58346 83.739737 
L 144.584122 72.88268 
L 145.584783 35.045458 
L 146.585445 18.732639 
L 147.586106 52.970182 
L 148.586768 163.032209 
L 149.587429 44.08331 
L 150.588091 65.63433 
L 151.588752 66.769435 
L 152.589414 70.002203 
L 153.590075 58.666123 
L 154.590737 163.332472 
L 155.591398 56.432931 
L 156.592059 58.035911 
L 157.592721 24.998317 
L 158.593382 26.390775 
L 159.594044 38.093746 
L 160.594705 162.953323 
L 161.595367 49.305088 
L 162.596028 103.35654 
L 163.59669 107.855335 
L 164.597351 103.16175 
L 165.598013 36.442019 
L 166.598674 162.615513 
L 167.599336 45.703293 
L 168.599997 28.253518 
L 169.600659 62.222515 
L 170.60132 40.926169 
L 171.601982 108.201021 
L 172.602643 162.69036 
L 173.603305 18.828641 
L 174.603966 108.164659 
L 175.604628 43.740547 
L 176.605289 66.10184 
L 177.605951 62.451317 
L 178.606612 162.764385 
L 179.607274 69.054713 
L 180.607935 73.157428 
L 181.608597 57.411324 
L 182.609258 59.225196 
L 183.60992 125.064358 
L 184.610581 162.855615 
L 185.611243 56.27218 
L 186.611904 121.020567 
L 187.612566 45.27802 
L 188.613227 57.56312 
L 189.613889 83.681957 
L 190.61455 162.937629 
L 191.615212 49.318981 
L 192.615873 130.957656 
L 193.616535 108.301504 
L 194.617196 137.938355 
L 195.617858 161.936454 
L 196.618519 162.430506 
L 197.619181 162.368822 
L 198.619842 161.453514 
L 199.620504 161.394388 
L 200.621165 152.961856 
L 201.621827 161.224475 
L 202.622488 162.483656 
L 203.62315 154.31601 
L 204.623811 60.903111 
L 205.624473 67.808517 
L 206.625134 47.163407 
L 207.625796 56.974908 
L 208.626457 163.302935 
L 209.627119 56.534641 
L 210.62778 65.650407 
L 211.628442 51.479356 
L 212.629103 81.35716 
L 213.629765 34.394686 
L 214.630426 163.308182 
L 215.631088 96.15763 
L 216.631749 56.864512 
L 217.632411 50.315148 
L 218.633072 35.245896 
L 219.633734 74.452483 
L 220.634395 162.072184 
L 221.635057 152.361032 
L 222.635718 161.857604 
L 223.63638 161.273452 
L 224.637041 161.344454 
L 225.637703 161.820227 
L 226.638364 162.458064 
L 227.639026 161.760193 
L 228.639687 132.265576 
L 229.640349 141.143649 
L 230.64101 151.091016 
L 231.641672 123.050041 
L 232.642333 162.854865 
L 233.642995 17.167575 
L 234.643656 80.244051 
L 235.644318 158.907786 
L 236.644979 161.497752 
L 237.64564 161.706021 
L 238.646302 162.395158 
L 239.646963 156.564469 
L 240.647625 153.924991 
L 241.648286 161.317275 
L 242.648948 158.666706 
L 243.649609 162.19881 
L 244.650271 162.435608 
L 245.650932 135.802196 
L 246.651594 129.572969 
L 247.652255 161.122706 
L 248.652917 160.767192 
L 249.653578 161.525841 
L 250.65424 162.502791 
L 251.654901 162.656345 
L 252.655563 126.550153 
L 253.656224 70.478969 
L 254.656886 42.371495 
L 255.657547 34.775136 
L 256.658209 162.756106 
L 257.65887 72.794333 
L 258.659532 55.380289 
L 259.660193 57.713813 
L 260.660855 67.902471 
L 261.661516 112.081207 
L 262.662178 163.318767 
L 263.662839 50.299604 
L 264.663501 76.289663 
L 265.664162 39.025145 
L 266.664824 41.844568 
L 267.665485 49.094039 
L 268.666147 162.800444 
L 269.666808 79.431931 
L 270.66747 77.099229 
L 271.668131 105.960574 
L 272.668793 42.000787 
L 273.669454 76.841576 
L 274.670116 162.491456 
L 275.670777 160.78462 
L 276.671439 161.771031 
L 279.673423 161.210944 
L 280.674085 162.361408 
L 281.674746 153.679328 
L 282.675408 103.276217 
L 283.676069 14.63488 
L 284.676731 115.442307 
L 285.677392 18.412889 
L 286.678054 162.747273 
L 287.678715 83.000622 
L 288.679377 44.968633 
L 289.680038 39.179279 
L 290.6807 53.577459 
L 291.681361 102.795808 
L 292.682023 163.2334 
L 293.682684 53.899075 
L 294.683346 69.302026 
L 295.684007 56.471693 
L 296.684669 62.619612 
L 297.68533 53.894959 
L 298.685992 162.540676 
L 299.686653 60.856067 
L 300.687315 153.951903 
L 301.687976 161.652303 
L 302.688638 161.160544 
L 303.689299 161.646643 
L 304.689961 162.449119 
L 304.689961 162.449119 
" clip-path="url(#pd9b576400b)" style="fill: none; stroke: #8b2be2; stroke-width: 1.5; stroke-linecap: round"/>
   </g>
  </g>
 </g>
 <defs>
  <clipPath id="pd9b576400b">
   <rect x="50.421875" y="7.2" width="266.37609" height="163.567352"/>
  </clipPath>
 </defs>
</svg>
